<svg xmlns="http://www.w3.org/2000/svg" xmlns:xlink="http://www.w3.org/1999/xlink" width="250" zoomAndPan="magnify" viewBox="0 0 187.5 60" height="80" preserveAspectRatio="xMidYMid meet" version="1.0"><defs><g/><clipPath id="id1"><path d="M 47 18 L 53.25 18 L 53.25 51.28125 L 47 51.28125 Z M 47 18 " clip-rule="nonzero"/></clipPath><clipPath id="id2"><path d="M 38 19 L 46 19 L 46 51.28125 L 38 51.28125 Z M 38 19 " clip-rule="nonzero"/></clipPath><clipPath id="id3"><path d="M 30 8.53125 L 37 8.53125 L 37 51.28125 L 30 51.28125 Z M 30 8.53125 " clip-rule="nonzero"/></clipPath><clipPath id="id4"><path d="M 22 9 L 30 9 L 30 51.28125 L 22 51.28125 Z M 22 9 " clip-rule="nonzero"/></clipPath><clipPath id="id5"><path d="M 14 18 L 21 18 L 21 51.28125 L 14 51.28125 Z M 14 18 " clip-rule="nonzero"/></clipPath><clipPath id="id6"><path d="M 6 19 L 14 19 L 14 51.28125 L 6 51.28125 Z M 6 19 " clip-rule="nonzero"/></clipPath></defs><g clip-path="url(#id1)"><path fill="rgb(21.179199%, 35.688782%, 42.749023%)" d="M 52.6875 20.777344 L 48.109375 18.496094 C 47.882812 18.367188 47.65625 18.367188 47.425781 18.496094 C 47.203125 18.640625 47.089844 18.839844 47.085938 19.105469 L 47.085938 50.53125 C 47.085938 50.726562 47.15625 50.894531 47.292969 51.03125 C 47.433594 51.167969 47.601562 51.238281 47.796875 51.238281 L 52.375 51.238281 C 52.570312 51.238281 52.738281 51.167969 52.878906 51.03125 C 53.015625 50.894531 53.085938 50.726562 53.085938 50.53125 L 53.085938 21.414062 C 53.082031 21.121094 52.949219 20.90625 52.6875 20.777344 Z M 52.6875 20.777344 " fill-opacity="1" fill-rule="nonzero"/></g><g clip-path="url(#id2)"><path fill="rgb(21.179199%, 35.688782%, 42.749023%)" d="M 45.265625 19.613281 C 44.972656 19.488281 44.71875 19.539062 44.496094 19.769531 L 38.667969 25.574219 C 38.523438 25.707031 38.453125 25.875 38.453125 26.070312 L 38.453125 50.558594 C 38.453125 50.753906 38.523438 50.921875 38.664062 51.058594 C 38.800781 51.199219 38.96875 51.265625 39.164062 51.265625 L 44.980469 51.265625 C 45.175781 51.265625 45.34375 51.199219 45.484375 51.058594 C 45.621094 50.921875 45.691406 50.753906 45.691406 50.558594 L 45.691406 20.265625 C 45.699219 19.953125 45.554688 19.738281 45.265625 19.613281 Z M 45.265625 19.613281 " fill-opacity="1" fill-rule="nonzero"/></g><g clip-path="url(#id3)"><path fill="rgb(21.179199%, 35.688782%, 42.749023%)" d="M 36.976562 11.503906 C 36.972656 11.210938 36.839844 11 36.578125 10.867188 L 32 8.671875 C 31.765625 8.550781 31.535156 8.550781 31.304688 8.671875 C 31.078125 8.816406 30.964844 9.019531 30.960938 9.28125 L 30.960938 50.558594 C 30.960938 50.753906 31.03125 50.921875 31.167969 51.058594 C 31.308594 51.199219 31.476562 51.265625 31.671875 51.265625 L 36.28125 51.265625 C 36.476562 51.265625 36.644531 51.199219 36.78125 51.058594 C 36.921875 50.921875 36.992188 50.753906 36.992188 50.558594 L 36.992188 50.164062 C 36.996094 50.117188 36.996094 50.070312 36.992188 50.019531 Z M 36.976562 11.503906 " fill-opacity="1" fill-rule="nonzero"/></g><g clip-path="url(#id4)"><path fill="rgb(21.179199%, 35.688782%, 42.749023%)" d="M 29.097656 9.734375 C 28.804688 9.609375 28.550781 9.660156 28.332031 9.890625 L 22.515625 15.75 C 22.375 15.890625 22.304688 16.0625 22.300781 16.261719 L 22.300781 50.035156 C 22.292969 50.101562 22.292969 50.167969 22.300781 50.234375 L 22.300781 50.628906 C 22.300781 50.824219 22.371094 50.992188 22.511719 51.128906 C 22.648438 51.269531 22.816406 51.335938 23.011719 51.339844 L 28.855469 51.339844 C 29.054688 51.335938 29.222656 51.269531 29.359375 51.128906 C 29.5 50.992188 29.566406 50.824219 29.566406 50.628906 L 29.566406 10.386719 C 29.566406 10.058594 29.410156 9.839844 29.097656 9.734375 Z M 29.097656 9.734375 " fill-opacity="1" fill-rule="nonzero"/></g><g clip-path="url(#id5)"><path fill="rgb(21.179199%, 35.688782%, 42.749023%)" d="M 20.453125 20.777344 L 15.859375 18.496094 C 15.632812 18.367188 15.40625 18.367188 15.179688 18.496094 C 14.957031 18.640625 14.839844 18.839844 14.835938 19.105469 L 14.835938 50.53125 C 14.835938 50.726562 14.90625 50.894531 15.046875 51.03125 C 15.183594 51.167969 15.351562 51.238281 15.546875 51.238281 L 20.140625 51.238281 C 20.335938 51.238281 20.503906 51.167969 20.644531 51.03125 C 20.78125 50.894531 20.851562 50.726562 20.851562 50.53125 L 20.851562 21.414062 C 20.847656 21.121094 20.714844 20.90625 20.453125 20.777344 Z M 20.453125 20.777344 " fill-opacity="1" fill-rule="nonzero"/></g><g clip-path="url(#id6)"><path fill="rgb(21.179199%, 35.688782%, 42.749023%)" d="M 12.976562 19.613281 C 12.679688 19.484375 12.425781 19.535156 12.207031 19.769531 L 6.378906 25.574219 C 6.234375 25.707031 6.160156 25.875 6.164062 26.070312 L 6.164062 50.558594 C 6.164062 50.753906 6.234375 50.921875 6.371094 51.058594 C 6.511719 51.199219 6.679688 51.265625 6.875 51.265625 L 12.703125 51.265625 C 12.902344 51.265625 13.070312 51.199219 13.207031 51.058594 C 13.347656 50.921875 13.414062 50.753906 13.414062 50.558594 L 13.414062 20.265625 C 13.417969 19.949219 13.269531 19.730469 12.976562 19.613281 Z M 12.976562 19.613281 " fill-opacity="1" fill-rule="nonzero"/></g><g fill="rgb(21.179199%, 35.688782%, 42.749023%)" fill-opacity="1"><g transform="translate(59.904855, 41.207403)"><g><path d="M 6.28125 -15.203125 L 6.28125 -4.375 C 6.28125 -1.457031 4.273438 0 0.265625 0 L 0.265625 -2.453125 C 2.390625 -2.453125 3.453125 -3.09375 3.453125 -4.375 L 3.453125 -15.203125 Z M 6.28125 -15.203125 "/></g></g></g><g fill="rgb(21.179199%, 35.688782%, 42.749023%)" fill-opacity="1"><g transform="translate(67.863608, 41.207403)"><g><path d="M 13.71875 -0.640625 C 12.40625 -0.140625 10.914062 0.109375 9.25 0.109375 C 3.789062 0.109375 1.0625 -2.53125 1.0625 -7.8125 C 1.0625 -12.8125 3.789062 -15.3125 9.25 -15.3125 C 10.914062 -15.3125 12.40625 -15.066406 13.71875 -14.578125 L 13.71875 -12.015625 C 12.40625 -12.585938 10.988281 -12.875 9.46875 -12.875 C 5.8125 -12.875 3.984375 -11.1875 3.984375 -7.8125 C 3.984375 -4.164062 5.8125 -2.34375 9.46875 -2.34375 C 10.988281 -2.34375 12.40625 -2.625 13.71875 -3.1875 Z M 13.71875 -0.640625 "/></g></g></g><g fill="rgb(21.179199%, 35.688782%, 42.749023%)" fill-opacity="1"><g transform="translate(82.736594, 41.207403)"><g><path d="M 3.984375 -7.640625 C 3.984375 -4.109375 5.554688 -2.34375 8.703125 -2.34375 C 11.765625 -2.34375 13.296875 -4.109375 13.296875 -7.640625 C 13.296875 -11.128906 11.765625 -12.875 8.703125 -12.875 C 5.554688 -12.875 3.984375 -11.128906 3.984375 -7.640625 Z M 1.0625 -7.578125 C 1.0625 -12.734375 3.609375 -15.3125 8.703125 -15.3125 C 13.710938 -15.3125 16.21875 -12.734375 16.21875 -7.578125 C 16.21875 -2.453125 13.710938 0.109375 8.703125 0.109375 C 3.835938 0.109375 1.289062 -2.453125 1.0625 -7.578125 Z M 1.0625 -7.578125 "/></g></g></g><g fill="rgb(21.179199%, 35.688782%, 42.749023%)" fill-opacity="1"><g transform="translate(100.109348, 41.207403)"><g><path d="M 1.59375 -0.015625 L 1.59375 -15.203125 L 8.515625 -15.203125 C 11.617188 -15.203125 13.171875 -13.847656 13.171875 -11.140625 C 13.171875 -9.296875 11.960938 -7.773438 9.546875 -6.578125 L 14.359375 0 L 10.8125 0 L 6.171875 -6.625 L 6.171875 -7.90625 C 8.867188 -8.375 10.21875 -9.421875 10.21875 -11.046875 C 10.21875 -12.171875 9.585938 -12.734375 8.328125 -12.734375 L 4.46875 -12.734375 L 4.46875 -0.015625 Z M 1.59375 -0.015625 "/></g></g></g><g fill="rgb(21.179199%, 35.688782%, 42.749023%)" fill-opacity="1"><g transform="translate(114.290916, 41.207403)"><g><path d="M 1.59375 -0.015625 L 1.59375 -15.203125 L 8.515625 -15.203125 C 11.617188 -15.203125 13.171875 -13.847656 13.171875 -11.140625 C 13.171875 -9.296875 11.960938 -7.773438 9.546875 -6.578125 L 14.359375 0 L 10.8125 0 L 6.171875 -6.625 L 6.171875 -7.90625 C 8.867188 -8.375 10.21875 -9.421875 10.21875 -11.046875 C 10.21875 -12.171875 9.585938 -12.734375 8.328125 -12.734375 L 4.46875 -12.734375 L 4.46875 -0.015625 Z M 1.59375 -0.015625 "/></g></g></g><g fill="rgb(21.179199%, 35.688782%, 42.749023%)" fill-opacity="1"><g transform="translate(128.472485, 41.207403)"><g><path d="M 3.15625 0 L 0.265625 0 L 6.71875 -15.203125 L 9.75 -15.203125 L 16.34375 0 L 13.3125 0 L 11.578125 -4.140625 L 6.53125 -4.140625 L 7.5 -6.59375 L 10.5625 -6.59375 L 8.171875 -12.3125 Z M 3.15625 0 "/></g></g></g><g fill="rgb(21.179199%, 35.688782%, 42.749023%)" fill-opacity="1"><g transform="translate(145.175084, 41.207403)"><g><path d="M 4.40625 -15.203125 L 4.40625 -2.453125 L 10.453125 -2.453125 L 10.453125 0 L 1.59375 0 L 1.59375 -15.203125 Z M 4.40625 -15.203125 "/></g></g></g><g fill="rgb(21.179199%, 35.688782%, 42.749023%)" fill-opacity="1"><g transform="translate(156.782437, 41.207403)"><g><path d="M 12 -15.203125 L 12 -12.78125 L 4.390625 -12.78125 L 4.390625 -8.953125 L 11.640625 -8.953125 L 11.640625 -6.4375 L 4.359375 -6.4375 L 4.359375 -2.453125 L 12.15625 -2.453125 L 12.15625 0 L 1.59375 0 L 1.59375 -15.203125 Z M 12 -15.203125 "/></g></g></g><g fill="rgb(21.179199%, 35.688782%, 42.749023%)" fill-opacity="1"><g transform="translate(170.03855, 41.207403)"><g><path d="M 1.328125 -0.640625 L 1.328125 -3.1875 C 2.847656 -2.625 4.570312 -2.34375 6.5 -2.34375 C 8.832031 -2.34375 10 -3.117188 10 -4.671875 C 10 -5.804688 9.28125 -6.375 7.84375 -6.375 L 5.46875 -6.375 C 2.351562 -6.375 0.796875 -7.796875 0.796875 -10.640625 C 0.796875 -13.753906 3.007812 -15.3125 7.4375 -15.3125 C 9.144531 -15.3125 10.757812 -15.066406 12.28125 -14.578125 L 12.28125 -12.015625 C 10.757812 -12.585938 9.144531 -12.875 7.4375 -12.875 C 4.882812 -12.875 3.609375 -12.128906 3.609375 -10.640625 C 3.609375 -9.503906 4.226562 -8.9375 5.46875 -8.9375 L 7.84375 -8.9375 C 11.15625 -8.9375 12.8125 -7.515625 12.8125 -4.671875 C 12.8125 -1.484375 10.707031 0.109375 6.5 0.109375 C 4.570312 0.109375 2.847656 -0.140625 1.328125 -0.640625 Z M 1.328125 -0.640625 "/></g></g></g><g fill="rgb(42.349243%, 57.249451%, 52.549744%)" fill-opacity="1"><g transform="translate(67.092878, 52.729787)"><g><path d="M 2.234375 0 L 0.625 0 L 0.625 -6.296875 L 2.234375 -6.296875 Z M 2.234375 0 "/></g></g></g><g fill="rgb(42.349243%, 57.249451%, 52.549744%)" fill-opacity="1"><g transform="translate(73.914896, 52.729787)"><g><path d="M 6.4375 0 L 5.03125 0 L 2.140625 -3.875 L 2.140625 0 L 0.625 0 L 0.625 -6.296875 L 2.046875 -6.296875 L 4.953125 -2.40625 L 4.953125 -6.296875 L 6.4375 -6.296875 Z M 6.4375 0 "/></g></g></g><g fill="rgb(42.349243%, 57.249451%, 52.549744%)" fill-opacity="1"><g transform="translate(84.948947, 52.729787)"><g><path d="M 7.546875 0 L 6.140625 0 L 6.125 -4.09375 L 4.609375 -0.625 L 3.578125 -0.625 L 2.0625 -4.09375 L 2.0625 0 L 0.625 0 L 0.625 -6.3125 L 2.390625 -6.3125 L 4.09375 -2.5625 L 5.8125 -6.3125 L 7.546875 -6.3125 Z M 7.546875 0 "/></g></g></g><g fill="rgb(42.349243%, 57.249451%, 52.549744%)" fill-opacity="1"><g transform="translate(97.099004, 52.729787)"><g><path d="M 3.625 -6.359375 C 4.59375 -6.359375 5.398438 -6.050781 6.046875 -5.4375 C 6.703125 -4.832031 7.03125 -4.070312 7.03125 -3.15625 C 7.03125 -2.238281 6.703125 -1.46875 6.046875 -0.84375 C 5.398438 -0.226562 4.585938 0.078125 3.609375 0.078125 C 2.640625 0.078125 1.832031 -0.226562 1.1875 -0.84375 C 0.539062 -1.457031 0.21875 -2.226562 0.21875 -3.15625 C 0.21875 -4.070312 0.539062 -4.832031 1.1875 -5.4375 C 1.832031 -6.050781 2.644531 -6.359375 3.625 -6.359375 Z M 3.640625 -5.015625 C 3.140625 -5.015625 2.71875 -4.832031 2.375 -4.46875 C 2.03125 -4.113281 1.859375 -3.671875 1.859375 -3.140625 C 1.859375 -2.617188 2.03125 -2.175781 2.375 -1.8125 C 2.726562 -1.445312 3.144531 -1.265625 3.625 -1.265625 C 4.113281 -1.265625 4.523438 -1.445312 4.859375 -1.8125 C 5.203125 -2.175781 5.375 -2.617188 5.375 -3.140625 C 5.375 -3.671875 5.203125 -4.113281 4.859375 -4.46875 C 4.523438 -4.832031 4.117188 -5.015625 3.640625 -5.015625 Z M 3.640625 -5.015625 "/></g></g></g><g fill="rgb(42.349243%, 57.249451%, 52.549744%)" fill-opacity="1"><g transform="translate(108.30405, 52.729787)"><g><path d="M 0.625 -6.296875 L 3.609375 -6.296875 C 4.316406 -6.296875 4.878906 -6.148438 5.296875 -5.859375 C 5.710938 -5.578125 5.921875 -5.195312 5.921875 -4.71875 C 5.921875 -4.394531 5.820312 -4.109375 5.625 -3.859375 C 5.4375 -3.609375 5.175781 -3.4375 4.84375 -3.34375 C 5.238281 -3.257812 5.550781 -3.070312 5.78125 -2.78125 C 6.019531 -2.5 6.140625 -2.15625 6.140625 -1.75 C 6.140625 -1.207031 5.921875 -0.78125 5.484375 -0.46875 C 5.046875 -0.15625 4.457031 0 3.71875 0 L 0.625 0 Z M 2.21875 -5.078125 L 2.21875 -3.78125 L 3.515625 -3.78125 C 3.753906 -3.78125 3.941406 -3.835938 4.078125 -3.953125 C 4.210938 -4.066406 4.28125 -4.226562 4.28125 -4.4375 C 4.28125 -4.632812 4.210938 -4.789062 4.078125 -4.90625 C 3.941406 -5.019531 3.753906 -5.078125 3.515625 -5.078125 Z M 2.21875 -2.625 L 2.21875 -1.234375 L 3.515625 -1.234375 C 3.816406 -1.234375 4.050781 -1.296875 4.21875 -1.421875 C 4.394531 -1.546875 4.484375 -1.71875 4.484375 -1.9375 C 4.484375 -2.15625 4.394531 -2.320312 4.21875 -2.4375 C 4.050781 -2.5625 3.816406 -2.625 3.515625 -2.625 Z M 2.21875 -2.625 "/></g></g></g><g fill="rgb(42.349243%, 57.249451%, 52.549744%)" fill-opacity="1"><g transform="translate(118.699096, 52.729787)"><g><path d="M 2.234375 0 L 0.625 0 L 0.625 -6.296875 L 2.234375 -6.296875 Z M 2.234375 0 "/></g></g></g><g fill="rgb(42.349243%, 57.249451%, 52.549744%)" fill-opacity="1"><g transform="translate(125.521113, 52.729787)"><g><path d="M 2.234375 -1.34375 L 4.90625 -1.34375 L 4.90625 0 L 0.625 0 L 0.625 -6.296875 L 2.234375 -6.296875 Z M 2.234375 -1.34375 "/></g></g></g><g fill="rgb(42.349243%, 57.249451%, 52.549744%)" fill-opacity="1"><g transform="translate(134.521147, 52.729787)"><g><path d="M 2.234375 0 L 0.625 0 L 0.625 -6.296875 L 2.234375 -6.296875 Z M 2.234375 0 "/></g></g></g><g fill="rgb(42.349243%, 57.249451%, 52.549744%)" fill-opacity="1"><g transform="translate(141.343164, 52.729787)"><g><path d="M 4.8125 -1.15625 L 2.0625 -1.15625 L 1.609375 0 L -0.046875 0 L 2.671875 -6.296875 L 4.3125 -6.296875 L 6.96875 0 L 5.265625 0 Z M 4.34375 -2.375 L 3.453125 -4.703125 L 2.53125 -2.375 Z M 4.34375 -2.375 "/></g></g></g><g fill="rgb(42.349243%, 57.249451%, 52.549744%)" fill-opacity="1"><g transform="translate(152.233212, 52.729787)"><g><path d="M 4.421875 0 L 3.484375 -1.765625 L 2.234375 -1.765625 L 2.234375 0 L 0.625 0 L 0.625 -6.296875 L 3.453125 -6.296875 C 4.285156 -6.296875 4.925781 -6.101562 5.375 -5.71875 C 5.832031 -5.34375 6.0625 -4.804688 6.0625 -4.109375 C 6.0625 -3.128906 5.679688 -2.453125 4.921875 -2.078125 L 6.25 0 Z M 2.234375 -3.03125 L 3.453125 -3.03125 C 3.796875 -3.03125 4.0625 -3.117188 4.25 -3.296875 C 4.445312 -3.472656 4.546875 -3.722656 4.546875 -4.046875 C 4.546875 -4.367188 4.445312 -4.613281 4.25 -4.78125 C 4.0625 -4.957031 3.796875 -5.046875 3.453125 -5.046875 L 2.234375 -5.046875 Z M 2.234375 -3.03125 "/></g></g></g><g fill="rgb(42.349243%, 57.249451%, 52.549744%)" fill-opacity="1"><g transform="translate(162.709258, 52.729787)"><g><path d="M 2.234375 0 L 0.625 0 L 0.625 -6.296875 L 2.234375 -6.296875 Z M 2.234375 0 "/></g></g></g><g fill="rgb(42.349243%, 57.249451%, 52.549744%)" fill-opacity="1"><g transform="translate(169.531281, 52.729787)"><g><path d="M 4.8125 -1.15625 L 2.0625 -1.15625 L 1.609375 0 L -0.046875 0 L 2.671875 -6.296875 L 4.3125 -6.296875 L 6.96875 0 L 5.265625 0 Z M 4.34375 -2.375 L 3.453125 -4.703125 L 2.53125 -2.375 Z M 4.34375 -2.375 "/></g></g></g></svg>